<?xml version="1.0" encoding="UTF-8"?>
<svg version="1.1" xmlns="http://www.w3.org/2000/svg" width="64" height="64">
<path d="M0 0 C1.49956993 -0.00786278 1.49956993 -0.00786278 3.0294342 -0.0158844 C5.1399747 -0.02229691 7.25055097 -0.0209776 9.36108398 -0.01245117 C12.58316968 -0.0039445 15.80348009 -0.03270895 19.02539062 -0.06445312 C21.07942655 -0.06606541 23.13346561 -0.06548709 25.1875 -0.0625 C26.62681129 -0.07935097 26.62681129 -0.07935097 28.09519958 -0.09654236 C33.76110133 -0.03777 37.27388526 0.48277906 41.66015625 4.43359375 C45.3372253 8.7748824 45.14261474 13.17480907 45.1640625 18.609375 C45.1740477 19.49336472 45.1840329 20.37735443 45.19432068 21.28813171 C45.20947567 23.15484961 45.21654728 25.02164839 45.21606445 26.88842773 C45.22261251 29.72713056 45.27707985 32.56230829 45.33398438 35.40039062 C45.34279034 37.22004021 45.34874195 39.03970629 45.3515625 40.859375 C45.37311905 41.6992244 45.3946756 42.53907379 45.41688538 43.40437317 C45.32915891 51.04710477 42.13215654 55.03207311 36.81852722 60.23783875 C31.75802493 64.54904151 27.64402329 65.30375287 21.12109375 65.16015625 C20.23660553 65.16115326 19.35211731 65.16215027 18.44082642 65.16317749 C16.58350571 65.1585242 14.72616904 65.13923364 12.86914062 65.10595703 C10.03530728 65.05859627 7.20522488 65.06487222 4.37109375 65.078125 C2.55857146 65.06697428 0.74606489 65.05275627 -1.06640625 65.03515625 C-1.90716705 65.03697906 -2.74792786 65.03880188 -3.61416626 65.04067993 C-8.95940926 64.91243312 -12.16690353 64.07368521 -16.33984375 60.43359375 C-20.30642857 55.91779756 -19.79086052 50.80064168 -19.7734375 45.09375 C-19.77867935 44.09403671 -19.7839212 43.09432343 -19.7893219 42.0643158 C-19.79573441 39.9537753 -19.7944151 37.84319903 -19.78588867 35.73266602 C-19.777382 32.51058032 -19.80614645 29.29026991 -19.83789062 26.06835938 C-19.83950291 24.01432345 -19.83892459 21.96028439 -19.8359375 19.90625 C-19.84717148 18.94670914 -19.85840546 17.98716827 -19.86997986 16.99855042 C-19.8112075 11.33264867 -19.29065844 7.81986474 -15.33984375 3.43359375 C-10.82404756 -0.53299107 -5.70689168 -0.01742302 0 0 Z M-11.33984375 8.43359375 C-14.24029421 13.27927867 -14.78734323 17.769391 -14.73828125 23.30859375 C-14.74115143 24.03675293 -14.74402161 24.76491211 -14.74697876 25.51513672 C-14.74900739 27.04460433 -14.74356212 28.57409861 -14.73095703 30.10351562 C-14.71488464 32.4276806 -14.73084523 34.75010704 -14.75 37.07421875 C-14.74801735 38.56901421 -14.74417323 40.06380859 -14.73828125 41.55859375 C-14.74435394 42.24421387 -14.75042664 42.92983398 -14.75668335 43.63623047 C-14.68440332 48.66242492 -13.65279365 52.0567178 -11.33984375 56.43359375 C-5.15364104 60.61713002 1.87263828 59.77481754 9.09765625 59.62109375 C10.30615234 59.60755859 11.51464844 59.59402344 12.75976562 59.58007812 C15.72702707 59.54489321 18.69335562 59.49566071 21.66015625 59.43359375 C21.74668457 58.40298828 21.74668457 58.40298828 21.83496094 57.3515625 C21.91649414 56.45050781 21.99802734 55.54945312 22.08203125 54.62109375 C22.1603418 53.72777344 22.23865234 52.83445313 22.31933594 51.9140625 C22.7535958 48.75354663 23.55572917 46.83865327 25.66015625 44.43359375 C28.78900622 42.59309377 31.78892359 42.25914799 35.33984375 41.88671875 C36.14921387 41.80067383 36.95858398 41.71462891 37.79248047 41.62597656 C38.40881348 41.56249023 39.02514648 41.49900391 39.66015625 41.43359375 C39.74775806 37.24622707 39.8007506 33.05909844 39.84765625 28.87109375 C39.87279297 27.68966797 39.89792969 26.50824219 39.92382812 25.29101562 C40.11275795 16.37786928 40.11275795 16.37786928 36.66015625 8.43359375 C31.64679657 5.78429551 27.46392329 4.98485812 21.78515625 5.03515625 C20.69291748 5.03085098 20.69291748 5.03085098 19.57861328 5.02645874 C18.04914567 5.02443011 16.51965139 5.02987538 14.99023438 5.04248047 C12.6660694 5.05855286 10.34364296 5.04259227 8.01953125 5.0234375 C6.52473579 5.02542015 5.02994141 5.02926427 3.53515625 5.03515625 C2.50672607 5.02604721 2.50672607 5.02604721 1.45751953 5.01675415 C-3.43781217 5.08715228 -7.12941532 5.91338468 -11.33984375 8.43359375 Z M29.22265625 48.99609375 C27.13534345 52.25230172 27.36861395 54.64354391 27.66015625 58.43359375 C32.42766051 56.04984162 35.514863 52.64893522 38.66015625 48.43359375 C38.66015625 48.10359375 38.66015625 47.77359375 38.66015625 47.43359375 C33.67448531 47.0254162 33.67448531 47.0254162 29.22265625 48.99609375 Z " fill="#FFFFFF" transform="translate(19.33984375,-0.43359375)"/>
<path d="M0 0 C11.22 0 22.44 0 34 0 C35 4 35 4 34 6 C22.78 6 11.56 6 0 6 C-1 2 -1 2 0 0 Z " fill="#FFFFFF" transform="translate(15,29)"/>
<path d="M0 0 C0.7027002 -0.00191345 1.40540039 -0.0038269 2.12939453 -0.00579834 C3.61556354 -0.00715975 5.10174445 -0.00346632 6.58789062 0.00488281 C8.86615646 0.01558346 11.14363377 0.00498661 13.421875 -0.0078125 C14.86458508 -0.0064909 16.30729466 -0.00392849 17.75 0 C19.06742188 0.00225586 20.38484375 0.00451172 21.7421875 0.00683594 C24.875 0.265625 24.875 0.265625 26.875 2.265625 C26.545 3.585625 26.215 4.905625 25.875 6.265625 C14.655 6.265625 3.435 6.265625 -8.125 6.265625 C-8.455 4.945625 -8.785 3.625625 -9.125 2.265625 C-6.22058341 -0.63879159 -4.05742155 0.00694764 0 0 Z " fill="#FFFFFF" transform="translate(23.125,13.734375)"/>
<path d="M0 0 C6.27 0 12.54 0 19 0 C19.33 1.65 19.66 3.3 20 5 C16.71646451 6.64176774 13.10480362 6.18454039 9.5 6.1875 C8.71496094 6.19974609 7.92992187 6.21199219 7.12109375 6.22460938 C5.07936274 6.22986254 3.03807749 6.1222018 1 6 C0.34 5.34 -0.32 4.68 -1 4 C-0.67 2.68 -0.34 1.36 0 0 Z " fill="#FFFFFF" transform="translate(15,44)"/>
</svg>
